<?xml version="1.0" encoding="utf-8"?>
<!-- Generator: Adobe Illustrator 23.0.3, SVG Export Plug-In . SVG Version: 6.00 Build 0)  -->
<svg version="1.1" id="Capa_1" xmlns="http://www.w3.org/2000/svg" xmlns:xlink="http://www.w3.org/1999/xlink" x="0px" y="0px"
	 viewBox="0 0 392.1 84.7" style="enable-background:new 0 0 392.1 84.7;" xml:space="preserve">
<style type="text/css">
	.st0{fill:#FFFFFF;}
</style>
<path class="st0" d="M94.9,58.7v23.9H72.1V1.3h22.8v46.3"/>
<g>
	<polygon class="st0" points="29.7,36.9 29.7,37 29.7,37 	"/>
	<polygon class="st0" points="29.7,37 0,56.9 0,82 29.7,62.1 29.7,62 	"/>
	<polygon class="st0" points="29.7,36.9 29.7,37 29.7,37 	"/>
	<polygon class="st0" points="29.7,62.1 29.7,62.1 29.7,62 	"/>
</g>
<g>
	<path class="st0" d="M29.7,36.6L29.7,36.6L29.7,36.6z"/>
</g>
<polygon class="st0" points="59.3,56.9 29.7,37 29.7,62 29.7,62.1 59.3,82 "/>
<g>
	<path class="st0" d="M29.7,0L29.7,0L29.7,0z"/>
	<polygon class="st0" points="29.7,0 0,20 0,45 29.7,25.1 29.7,25.1 	"/>
	<path class="st0" d="M29.7,0L29.7,0L29.7,0z"/>
	<path class="st0" d="M29.7,25.1L29.7,25.1L29.7,25.1z"/>
</g>
<polygon class="st0" points="59.3,20 29.7,0 29.7,25.1 29.7,25.1 59.3,45 "/>
<g>
	<path class="st0" d="M94.9,52.9L94.9,52.9L94.9,52.9z"/>
	<polygon class="st0" points="94.9,52.9 114.8,82.6 139.9,82.6 120,52.9 120,52.9 	"/>
	<path class="st0" d="M94.9,52.9L94.9,52.9L94.9,52.9z"/>
	<path class="st0" d="M120,52.9L120,52.9L120,52.9z"/>
</g>
<polygon class="st0" points="114.8,23.3 94.9,52.9 120,52.9 120,52.9 139.9,23.3 "/>
<g>
	<path class="st0" d="M134.2,53.8c0-17.8,10.3-30.5,26.2-30.5c8.9,0,15.2,4.3,17.9,10.2v-8.6h22.9v57.7h-22.9V74
		c-2.5,5.9-9.3,10.2-18,10.2C144.2,84.3,134.2,71.5,134.2,53.8z M179.4,53.8c0-7-4.1-12.2-10.9-12.2c-6.5,0-10.7,5.1-10.7,12.2
		s4.2,12.1,10.7,12.1C175.3,65.9,179.4,60.7,179.4,53.8z"/>
	<path class="st0" d="M359,43.5h-22.9V24.9h56l-24.9,39.2h22.5v18.6h-56.4L359,43.5z"/>
	<path class="st0" d="M263.2,53.8c0-17.8,10.3-30.5,26.2-30.5c8.9,0,15.2,4.3,17.9,10.2v-8.6h22.9v57.7h-22.9V74
		c-2.5,5.9-9.3,10.2-18,10.2C273.2,84.3,263.2,71.5,263.2,53.8z M308.4,53.8c0-7-4.1-12.2-10.9-12.2c-6.5,0-10.7,5.1-10.7,12.2
		s4.2,12.1,10.7,12.1C304.4,65.9,308.4,60.7,308.4,53.8z"/>
	<path class="st0" d="M203.7,65.5h22.6c0,3.3,2.8,5.5,7.2,5.5c3,0,5.2-1.5,5.2-4.1c0-1.9-1.2-3.1-3.9-3.8l-13.7-3.2
		c-10.4-2.3-16.4-8.5-16.4-17.4c0-12.1,10.3-19.6,27.1-19.6c18.8,0,28.6,6.6,28.6,18.1H238c0-3.4-2.3-5-6.2-5c-3,0-5,1.4-5,3.5
		c0,2.2,1.6,3.6,4.9,4.4l13.6,3.5c10.1,2.5,16,7.6,16,16.6c0,12.6-10.8,20.7-27.9,20.7C214.6,84.6,203.7,76.8,203.7,65.5z"/>
</g>
</svg>
